<svg xmlns="http://www.w3.org/2000/svg" viewBox="0 0 100 100">
  <defs>
    <linearGradient id="treeGradient" x1="0%" y1="0%" x2="0%" y2="100%">
      <stop offset="0%" style="stop-color:#2d5016;stop-opacity:1" />
      <stop offset="100%" style="stop-color:#1a472a;stop-opacity:1" />
    </linearGradient>
  </defs>
  
  <!-- Tree -->
  <polygon points="50,15 30,40 35,40 20,60 25,60 15,80 85,80 75,60 80,60 65,40 70,40" fill="url(#treeGradient)"/>
  
  <!-- Trunk -->
  <rect x="45" y="80" width="10" height="10" fill="#6b4423"/>
  
  <!-- Star -->
  <polygon points="50,5 52,12 59,12 53,16 55,23 50,19 45,23 47,16 41,12 48,12" fill="#ffd700"/>
  
  <!-- Ornaments -->
  <circle cx="50" cy="50" r="3" fill="#ff0000"/>
  <circle cx="40" cy="55" r="3" fill="#ffd700"/>
  <circle cx="60" cy="55" r="3" fill="#ff0000"/>
  <circle cx="45" cy="65" r="3" fill="#ffd700"/>
  <circle cx="55" cy="65" r="3" fill="#ff0000"/>
</svg>


